# xmcd
#
# Track frame offsets: 
#        225
#        13368
#        32000
#        42089
#        54551
#        66080
#        80066
#        93150
#        108209
#        125785
#        143579
#        158862
#        174056
#        188902
#        199289
#        211905
#        223196
#        237909
#
# Disc length: 3322 seconds
#
# Revision: 1
# Processed by: cddbd v1.5.1PL2 Copyright (c) Steve Scherf et al.
# Submitted via: ExactAudioCopy v0.90b3
#
DISCID=fe0cf712
DTITLE=Hezekiah and The House Rockers - Hezekiah and The House Rockers
DYEAR=1983
DGENRE=Blues
TTITLE0=Going To California
TTITLE1=Baby, What You Want Me To Do
TTITLE2=Whoopin' Blues
TTITLE3=Worried Blues
TTITLE4=Hezekiah's Boogie
TTITLE5=Whole Lot Of Shakin' Going On
TTITLE6=Alabama Bound
TTITLE7=Mary Had A Little Lamb
TTITLE8=Racetrack Blues
TTITLE9=Do Your Thing
TTITLE10=Low Down Dirty Shame
TTITLE11=Lonely, Lonely Baby
TTITLE12=Disco Fever
TTITLE13=I'm Gonna Rock, I'm Gonna Roll
TTITLE14=When The Saints Go Marching In
TTITLE15=I'm Gonna Jump My Blues Away
TTITLE16=Early One Morning (You Sure Look Good To Me)
TTITLE17=Harmonica Shuffle
EXTD=
EXTT0=
EXTT1=
EXTT2=
EXTT3=
EXTT4=
EXTT5=
EXTT6=
EXTT7=
EXTT8=
EXTT9=
EXTT10=
EXTT11=
EXTT12=
EXTT13=
EXTT14=
EXTT15=
EXTT16=
EXTT17=
PLAYORDER=
